<?xml version="1.0" standalone="no"?>
<!DOCTYPE svg PUBLIC "-//W3C//DTD SVG 20010904//EN"
 "http://www.w3.org/TR/2001/REC-SVG-20010904/DTD/svg10.dtd">
<svg version="1.0" xmlns="http://www.w3.org/2000/svg"
 width="150.000000pt" height="150.000000pt" viewBox="0 0 150.000000 150.000000"
 preserveAspectRatio="xMidYMid meet">
<metadata>
Created by potrace 1.14, written by Peter Selinger 2001-2017
</metadata>
<g transform="translate(0.000000,150.000000) scale(0.100000,-0.100000)"
fill="#000000" stroke="none">
<path d="M1035 1379 c-3 -9 -23 -15 -52 -16 -30 -1 -51 -7 -59 -17 -6 -9 -18
-15 -25 -13 -8 2 -11 2 -6 0 13 -8 7 -25 -7 -20 -10 4 -13 1 -9 -8 3 -8 -2
-18 -11 -21 -9 -3 -14 -10 -11 -14 2 -4 -4 -15 -15 -25 -11 -10 -20 -26 -20
-37 0 -10 -4 -18 -9 -18 -6 0 -40 -40 -76 -89 -57 -76 -71 -89 -94 -87 -30 2
-108 60 -116 87 -9 27 -56 69 -77 69 -11 0 -43 17 -72 38 -52 37 -56 38 -132
36 -44 -1 -86 -3 -94 -3 -20 -1 -63 -66 -66 -99 -1 -15 -4 -36 -6 -47 -3 -11
3 -43 13 -72 9 -28 20 -82 24 -119 4 -38 9 -71 11 -74 9 -8 22 23 19 46 -4 41
45 22 70 -25 8 -16 38 -60 66 -97 35 -45 49 -71 43 -79 -57 -76 -174 -271
-189 -316 -9 -24 -18 -51 -21 -59 -9 -21 -13 -81 -7 -106 3 -16 10 -20 25 -16
14 3 19 1 14 -6 -13 -21 84 -2 126 24 21 14 43 22 48 19 6 -4 10 4 10 17 0 15
18 38 52 68 28 25 58 52 66 61 13 15 20 10 80 -52 45 -48 84 -78 127 -99 67
-32 204 -59 279 -55 39 3 48 -1 58 -19 6 -11 11 -22 10 -23 -8 -12 1 -33 14
-33 14 0 16 8 12 45 -3 25 -3 45 1 46 71 9 114 27 178 73 52 38 81 99 121 256
42 160 40 258 -5 351 -19 39 -53 85 -81 111 -53 50 -61 79 -29 105 12 10 24
29 25 43 2 14 11 33 19 42 16 18 11 68 -7 68 -6 0 -10 9 -10 20 0 11 -11 30
-25 42 -14 12 -23 28 -20 36 2 7 0 10 -5 7 -5 -3 -18 3 -28 13 -26 26 -79 44
-88 30 -5 -7 -12 -5 -20 7 -11 14 -15 15 -19 4z m152 -445 l28 -26 -35 23
c-46 29 -45 29 -32 29 6 0 24 -12 39 -26z m-51 -46 c59 -40 109 -105 126 -161
6 -23 12 -80 12 -127 0 -89 -5 -104 -68 -197 l-24 -34 2 56 c0 30 -2 55 -6 55
-4 0 -10 10 -14 23 -3 12 -13 29 -20 38 -8 9 -13 32 -11 55 2 39 2 39 -35 39
-55 1 -80 44 -75 130 2 28 0 30 -34 30 -33 0 -35 2 -25 19 17 31 38 51 74 72
17 10 32 22 32 26 0 15 18 8 66 -24z m-504 -453 c12 -14 26 -25 31 -25 23 0
65 -43 75 -78 10 -33 16 -39 39 -39 15 0 29 -6 31 -12 2 -6 11 -11 21 -11 9 0
22 -5 29 -12 7 -7 12 -8 12 -4 0 5 7 3 15 -4 30 -25 18 -38 -27 -29 -83 18
-89 20 -83 28 3 5 -4 7 -14 4 -18 -4 -130 48 -172 80 -18 14 -69 86 -69 98 0
9 47 27 73 28 9 1 27 -10 39 -24z"/>
<path d="M690 371 c0 -5 5 -13 10 -16 6 -3 10 -2 10 4 0 5 -4 13 -10 16 -5 3
-10 2 -10 -4z"/>
</g>
</svg>
